<!-- アプリアイコン (res/drawable/ic_launcher_*.xml) と同じ図柄 -->
<svg xmlns="http://www.w3.org/2000/svg" width="108" height="108" viewBox="18 18 72 72">
  <defs>
    <linearGradient id="bg" x1="0" y1="0" x2="1" y2="1">
      <stop offset="0" stop-color="#2A3350"/>
      <stop offset="1" stop-color="#111318"/>
    </linearGradient>
  </defs>
  <rect x="18" y="18" width="72" height="72" rx="18" fill="url(#bg)"/>
  <path fill="#8AB4F8" d="M35,36h38a5,5 0,0 1,5 5v24a5,5 0,0 1,-5 5h-38a5,5 0,0 1,-5 -5v-24a5,5 0,0 1,5 -5z"/>
  <path fill="#111318" d="M49,45.5 L63,53 L49,60.5 Z"/>
  <path fill="#8AB4F8" d="M44,74.5h20a1.75,1.75 0,0 1,0 3.5h-20a1.75,1.75 0,0 1,0 -3.5z"/>
</svg>
